<mxfile host="localhost" modified="2020-05-24T14:25:58.152Z" agent="5.0 (Windows NT 10.0; Win64; x64) AppleWebKit/537.36 (KHTML, like Gecko) Code/1.45.1 Chrome/78.0.3904.130 Electron/7.2.4 Safari/537.36" etag="U_dFsd8WSeiS2nNVIrFy" version="13.0.9">
    <diagram id="6hGFLwfOUW9BJ-s0fimq" name="Page-1">
        <mxGraphModel dx="2304" dy="714" grid="1" gridSize="10" guides="1" tooltips="1" connect="1" arrows="1" fold="1" page="1" pageScale="1" pageWidth="1600" pageHeight="1200" math="0" shadow="0">
            <root>
                <mxCell id="0"/>
                <mxCell id="1" parent="0"/>
                <mxCell id="12" style="edgeStyle=orthogonalEdgeStyle;rounded=0;orthogonalLoop=1;jettySize=auto;html=1;entryX=0.5;entryY=0;entryDx=0;entryDy=0;entryPerimeter=0;" edge="1" parent="1" source="3" target="4">
                    <mxGeometry relative="1" as="geometry"/>
                </mxCell>
                <mxCell id="3" value="スタート" style="strokeWidth=2;html=1;shape=mxgraph.flowchart.terminator;whiteSpace=wrap;fontSize=8;" vertex="1" parent="1">
                    <mxGeometry x="81.5" y="40" width="77.5" height="40" as="geometry"/>
                </mxCell>
                <mxCell id="7" style="edgeStyle=orthogonalEdgeStyle;rounded=0;orthogonalLoop=1;jettySize=auto;html=1;entryX=0;entryY=0.5;entryDx=0;entryDy=0;" edge="1" parent="1" source="4" target="6">
                    <mxGeometry relative="1" as="geometry"/>
                </mxCell>
                <mxCell id="46" value="０以外" style="edgeLabel;html=1;align=center;verticalAlign=middle;resizable=0;points=[];fontSize=8;" vertex="1" connectable="0" parent="7">
                    <mxGeometry x="-0.3812" y="1" relative="1" as="geometry">
                        <mxPoint as="offset"/>
                    </mxGeometry>
                </mxCell>
                <mxCell id="38" style="edgeStyle=orthogonalEdgeStyle;rounded=0;orthogonalLoop=1;jettySize=auto;html=1;fontSize=8;" edge="1" parent="1" source="4" target="37">
                    <mxGeometry relative="1" as="geometry"/>
                </mxCell>
                <mxCell id="45" value="０" style="edgeLabel;html=1;align=center;verticalAlign=middle;resizable=0;points=[];fontSize=8;" vertex="1" connectable="0" parent="38">
                    <mxGeometry x="-0.9346" y="2" relative="1" as="geometry">
                        <mxPoint as="offset"/>
                    </mxGeometry>
                </mxCell>
                <mxCell id="4" value="何が食べたい？&lt;br style=&quot;font-size: 8px;&quot;&gt;０：指定無し&lt;br style=&quot;font-size: 8px;&quot;&gt;１：ラーメン" style="strokeWidth=2;html=1;shape=mxgraph.flowchart.decision;whiteSpace=wrap;fontSize=8;" vertex="1" parent="1">
                    <mxGeometry x="40.75" y="120" width="159" height="80" as="geometry"/>
                </mxCell>
                <mxCell id="19" value="０以外" style="edgeStyle=orthogonalEdgeStyle;rounded=0;orthogonalLoop=1;jettySize=auto;html=1;exitX=0.5;exitY=1;exitDx=0;exitDy=0;exitPerimeter=0;entryX=0.5;entryY=0;entryDx=0;entryDy=0;entryPerimeter=0;fontSize=8;" edge="1" parent="1" source="5" target="8">
                    <mxGeometry relative="1" as="geometry"/>
                </mxCell>
                <mxCell id="40" style="edgeStyle=orthogonalEdgeStyle;rounded=0;orthogonalLoop=1;jettySize=auto;html=1;fontSize=8;" edge="1" parent="1" source="5">
                    <mxGeometry relative="1" as="geometry">
                        <mxPoint x="120" y="280" as="targetPoint"/>
                    </mxGeometry>
                </mxCell>
                <mxCell id="43" value="０" style="edgeLabel;html=1;align=center;verticalAlign=middle;resizable=0;points=[];fontSize=8;" vertex="1" connectable="0" parent="40">
                    <mxGeometry x="-0.2194" y="-1" relative="1" as="geometry">
                        <mxPoint as="offset"/>
                    </mxGeometry>
                </mxCell>
                <mxCell id="5" value="どの都道府県？&lt;br style=&quot;font-size: 8px;&quot;&gt;０：指定無し&lt;br style=&quot;font-size: 8px;&quot;&gt;１：東京都" style="strokeWidth=2;html=1;shape=mxgraph.flowchart.decision;whiteSpace=wrap;fontSize=8;" vertex="1" parent="1">
                    <mxGeometry x="360" y="240" width="160" height="80" as="geometry"/>
                </mxCell>
                <mxCell id="32" style="edgeStyle=orthogonalEdgeStyle;rounded=0;orthogonalLoop=1;jettySize=auto;html=1;fontSize=8;" edge="1" parent="1" source="6" target="5">
                    <mxGeometry relative="1" as="geometry"/>
                </mxCell>
                <mxCell id="6" value="どういった味がいい？&lt;br style=&quot;font-size: 8px;&quot;&gt;０：指定無し&lt;br style=&quot;font-size: 8px;&quot;&gt;１：しょうゆ&lt;br style=&quot;font-size: 8px;&quot;&gt;・・・" style="rounded=1;whiteSpace=wrap;html=1;absoluteArcSize=1;arcSize=14;strokeWidth=2;fontSize=8;" vertex="1" parent="1">
                    <mxGeometry x="360" y="120" width="160" height="80" as="geometry"/>
                </mxCell>
                <mxCell id="34" value="０以外" style="edgeStyle=orthogonalEdgeStyle;rounded=0;orthogonalLoop=1;jettySize=auto;html=1;fontSize=8;entryX=0.5;entryY=0;entryDx=0;entryDy=0;" edge="1" parent="1" source="8" target="36">
                    <mxGeometry relative="1" as="geometry">
                        <mxPoint x="440" y="480" as="targetPoint"/>
                    </mxGeometry>
                </mxCell>
                <mxCell id="41" style="edgeStyle=orthogonalEdgeStyle;rounded=0;orthogonalLoop=1;jettySize=auto;html=1;fontSize=8;" edge="1" parent="1" source="8">
                    <mxGeometry relative="1" as="geometry">
                        <mxPoint x="120" y="400" as="targetPoint"/>
                    </mxGeometry>
                </mxCell>
                <mxCell id="44" value="０" style="edgeLabel;html=1;align=center;verticalAlign=middle;resizable=0;points=[];fontSize=8;" vertex="1" connectable="0" parent="41">
                    <mxGeometry x="-0.2944" y="-1" relative="1" as="geometry">
                        <mxPoint as="offset"/>
                    </mxGeometry>
                </mxCell>
                <mxCell id="8" value="どの地域？&lt;br style=&quot;font-size: 8px;&quot;&gt;０：指定無し&lt;br style=&quot;font-size: 8px;&quot;&gt;１：杉並区&lt;br style=&quot;font-size: 8px;&quot;&gt;２：中野区" style="strokeWidth=2;html=1;shape=mxgraph.flowchart.decision;whiteSpace=wrap;fontSize=8;" vertex="1" parent="1">
                    <mxGeometry x="360" y="360" width="160" height="80" as="geometry"/>
                </mxCell>
                <mxCell id="39" style="edgeStyle=orthogonalEdgeStyle;rounded=0;orthogonalLoop=1;jettySize=auto;html=1;entryX=1;entryY=0.5;entryDx=0;entryDy=0;fontSize=8;" edge="1" parent="1" source="20" target="37">
                    <mxGeometry relative="1" as="geometry">
                        <Array as="points">
                            <mxPoint x="440" y="760"/>
                        </Array>
                    </mxGeometry>
                </mxCell>
                <mxCell id="20" value="相場は？&lt;br style=&quot;font-size: 8px;&quot;&gt;０：指定無し&lt;br style=&quot;font-size: 8px;&quot;&gt;１：～９９９円" style="rounded=1;whiteSpace=wrap;html=1;absoluteArcSize=1;arcSize=14;strokeWidth=2;fontSize=8;" vertex="1" parent="1">
                    <mxGeometry x="360" y="600" width="160" height="80" as="geometry"/>
                </mxCell>
                <mxCell id="35" style="edgeStyle=orthogonalEdgeStyle;rounded=0;orthogonalLoop=1;jettySize=auto;html=1;entryX=0.5;entryY=0;entryDx=0;entryDy=0;fontSize=8;exitX=0.5;exitY=1;exitDx=0;exitDy=0;" edge="1" parent="1" source="36" target="20">
                    <mxGeometry relative="1" as="geometry">
                        <mxPoint x="440" y="560" as="sourcePoint"/>
                    </mxGeometry>
                </mxCell>
                <mxCell id="36" value="どの駅？&lt;br&gt;０：指定無し&lt;br&gt;１：ｘｘｘ&lt;br&gt;２：ｘｘｘ" style="rounded=1;whiteSpace=wrap;html=1;absoluteArcSize=1;arcSize=14;strokeWidth=2;fontSize=8;" vertex="1" parent="1">
                    <mxGeometry x="360" y="480" width="160" height="80" as="geometry"/>
                </mxCell>
                <mxCell id="48" style="edgeStyle=orthogonalEdgeStyle;rounded=0;orthogonalLoop=1;jettySize=auto;html=1;fontSize=8;" edge="1" parent="1" source="37" target="47">
                    <mxGeometry relative="1" as="geometry"/>
                </mxCell>
                <mxCell id="37" value="ここなんてどう？&lt;br&gt;（店名とURLと画像）" style="rounded=1;whiteSpace=wrap;html=1;absoluteArcSize=1;arcSize=14;strokeWidth=2;fontSize=8;" vertex="1" parent="1">
                    <mxGeometry x="40.25" y="720" width="160" height="80" as="geometry"/>
                </mxCell>
                <mxCell id="49" style="edgeStyle=orthogonalEdgeStyle;rounded=0;orthogonalLoop=1;jettySize=auto;html=1;fontSize=8;" edge="1" parent="1" source="47">
                    <mxGeometry relative="1" as="geometry">
                        <mxPoint x="120.25" y="590" as="targetPoint"/>
                        <Array as="points">
                            <mxPoint y="880"/>
                            <mxPoint y="590"/>
                        </Array>
                    </mxGeometry>
                </mxCell>
                <mxCell id="50" value="１" style="edgeLabel;html=1;align=center;verticalAlign=middle;resizable=0;points=[];fontSize=8;" vertex="1" connectable="0" parent="49">
                    <mxGeometry x="-0.0015" y="-1" relative="1" as="geometry">
                        <mxPoint as="offset"/>
                    </mxGeometry>
                </mxCell>
                <mxCell id="55" style="edgeStyle=orthogonalEdgeStyle;rounded=0;orthogonalLoop=1;jettySize=auto;html=1;entryX=0.5;entryY=0;entryDx=0;entryDy=0;entryPerimeter=0;fontSize=8;" edge="1" parent="1" source="47" target="51">
                    <mxGeometry relative="1" as="geometry"/>
                </mxCell>
                <mxCell id="47" value="他の候補も見る？&lt;br&gt;０：いいえ&lt;br&gt;１：はい" style="strokeWidth=2;html=1;shape=mxgraph.flowchart.decision;whiteSpace=wrap;fontSize=8;" vertex="1" parent="1">
                    <mxGeometry x="40.25" y="840" width="160" height="80" as="geometry"/>
                </mxCell>
                <mxCell id="51" value="ゴール" style="strokeWidth=2;html=1;shape=mxgraph.flowchart.terminator;whiteSpace=wrap;fontSize=8;" vertex="1" parent="1">
                    <mxGeometry x="81.5" y="960" width="77.5" height="40" as="geometry"/>
                </mxCell>
            </root>
        </mxGraphModel>
    </diagram>
</mxfile>